<?xml version="1.0" standalone="no"?>
<!DOCTYPE svg PUBLIC "-//W3C//DTD SVG 20010904//EN"
 "http://www.w3.org/TR/2001/REC-SVG-20010904/DTD/svg10.dtd">
<svg version="1.0" xmlns="http://www.w3.org/2000/svg"
 width="700.000000pt" height="700.000000pt" viewBox="0 0 700.000000 700.000000"
 preserveAspectRatio="xMidYMid meet">
<metadata>
Created by potrace 1.11, written by Peter Selinger 2001-2013
</metadata>
<g transform="translate(0.000000,700.000000) scale(0.100000,-0.100000)"
fill="#000000" stroke="none">
<path d="M3248 6399 c-31 -5 -98 -21 -150 -38 -51 -16 -194 -62 -318 -102
l-225 -72 -235 -2 c-286 -3 -348 -15 -468 -96 -54 -36 -138 -123 -152 -156 -5
-13 -16 -23 -25 -23 -8 0 -23 -4 -33 -10 -16 -8 -253 -85 -312 -101 -134 -35
-620 -199 -672 -226 -174 -91 -286 -273 -294 -478 -4 -98 3 -130 76 -385 23
-80 46 -158 50 -175 22 -82 44 -160 110 -390 39 -137 96 -338 126 -445 30
-107 64 -224 74 -260 48 -164 123 -430 135 -475 8 -27 46 -162 85 -300 39
-137 78 -272 85 -300 8 -27 34 -122 60 -210 25 -88 50 -176 55 -195 4 -19 29
-107 55 -195 25 -88 48 -171 51 -184 12 -60 69 -186 108 -238 112 -153 284
-236 470 -227 63 3 124 18 315 78 445 140 716 227 841 268 123 41 128 42 290
46 l166 4 189 -51 c105 -27 343 -91 530 -141 187 -50 392 -105 455 -122 63
-16 153 -40 200 -52 155 -41 276 -32 408 30 127 61 235 181 281 315 15 42 127
490 146 584 3 11 19 78 36 148 17 71 32 136 34 145 2 10 12 53 24 97 11 44 22
91 25 105 2 14 25 111 51 215 25 105 48 199 50 210 6 29 139 580 190 790 24
99 65 270 90 380 26 110 48 202 50 206 2 3 6 16 9 30 2 13 12 56 21 94 9 39
19 81 21 95 3 14 19 78 35 143 89 353 94 450 32 605 -61 151 -195 275 -353
326 -25 8 -106 30 -180 50 -74 19 -220 58 -325 86 -104 28 -233 63 -284 76
-83 22 -120 42 -121 66 -1 18 -100 113 -159 152 -125 83 -157 88 -546 91 -333
3 -342 3 -440 30 -276 73 -362 100 -409 125 -96 51 -219 73 -328 59z"/>
</g>
</svg>
